<svg id="SvgjsSvg1001" width="288" height="288" xmlns="http://www.w3.org/2000/svg" version="1.1" xmlns:xlink="http://www.w3.org/1999/xlink" xmlns:svgjs="http://svgjs.com/svgjs"><defs id="SvgjsDefs1002"></defs><g id="SvgjsG1008" transform="matrix(0.9167,0,0,0.9167,11.995200000000011,11.995200000000011)"><svg xmlns="http://www.w3.org/2000/svg" width="288" height="288" enable-background="new 0 0 64 64" viewBox="0 0 64 64"><path d="M25 15c0 .55273.44775 1 1 1h12c.55225 0 1-.44727 1-1 0-2.80066-1.65747-5.21588-4.03973-6.33405.63922-.70916 1.03973-1.63806 1.03973-2.66595 0-2.20605-1.79443-4-4-4s-4 1.79395-4 4c0 1.02789.40051 1.95679 1.03973 2.66595-2.38226 1.11817-4.03973 3.53339-4.03973 6.33405zm5-9c0-1.10254.89697-2 2-2s2 .89746 2 2-.89697 2-2 2-2-.89746-2-2zm2 4c2.41455 0 4.43506 1.7207 4.89941 4h-9.79883c.46436-2.2793 2.48487-4 4.89942-4zM41 22c0 .55273.44775 1 1 1h12c.55225 0 1-.44727 1-1 0-2.80066-1.65747-5.21588-4.03973-6.33405.63922-.70916 1.03973-1.63806 1.03973-2.66595 0-2.20605-1.79443-4-4-4s-4 1.79395-4 4c0 1.02789.40051 1.95679 1.03973 2.66595-2.38226 1.11817-4.03973 3.53339-4.03973 6.33405zm5-9c0-1.10254.89697-2 2-2s2 .89746 2 2-.89697 2-2 2-2-.89746-2-2zm2 4c2.41455 0 4.43506 1.7207 4.89941 4h-9.79883c.46436-2.2793 2.48487-4 4.89942-4zM48 41c-2.20557 0-4 1.79395-4 4 0 1.02789.40051 1.95679 1.03973 2.66595-2.38226 1.11817-4.03973 3.53339-4.03973 6.33405 0 .55273.44775 1 1 1h12c.55225 0 1-.44727 1-1 0-2.80066-1.65747-5.21588-4.03973-6.33405.63922-.70916 1.03973-1.63806 1.03973-2.66595 0-2.20605-1.79443-4-4-4zm-2 4c0-1.10254.89697-2 2-2s2 .89746 2 2-.89697 2-2 2-2-.89746-2-2zm6.89941 8h-9.79883c.46436-2.2793 2.48486-4 4.89941-4s4.43507 1.7207 4.89942 4zM25 61c0 .55273.44775 1 1 1h12c.55225 0 1-.44727 1-1 0-2.80066-1.65747-5.21588-4.03973-6.33405.63922-.70916 1.03973-1.63806 1.03973-2.66595 0-2.20605-1.79443-4-4-4s-4 1.79395-4 4c0 1.02789.40051 1.95679 1.03973 2.66595-2.38226 1.11817-4.03973 3.53339-4.03973 6.33405zm5-9c0-1.10254.89697-2 2-2s2 .89746 2 2-.89697 2-2 2-2-.89746-2-2zm2 4c2.41455 0 4.43506 1.7207 4.89941 4h-9.79883c.46436-2.2793 2.48487-4 4.89942-4zM57.96027 31.66595c.63922-.70916 1.03973-1.63806 1.03973-2.66595 0-2.20605-1.79443-4-4-4s-4 1.79395-4 4c0 1.02789.40051 1.95679 1.03973 2.66595-2.38226 1.11817-4.03973 3.53339-4.03973 6.33405 0 .55273.44775 1 1 1h12c.55225 0 1-.44727 1-1 0-2.80066-1.65747-5.21588-4.03973-6.33405zm-4.96027-2.66595c0-1.10254.89697-2 2-2s2 .89746 2 2-.89697 2-2 2-2-.89746-2-2zm-2.89941 8c.46436-2.2793 2.48486-4 4.89941-4s4.43506 1.7207 4.89941 4zM9 22c0 .55273.44775 1 1 1h12c.55225 0 1-.44727 1-1 0-2.80066-1.65747-5.21588-4.03973-6.33405.63922-.70916 1.03973-1.63806 1.03973-2.66595 0-2.20605-1.79443-4-4-4s-4 1.79395-4 4c0 1.02789.40051 1.95679 1.03973 2.66595-2.38226 1.11817-4.03973 3.53339-4.03973 6.33405zm5-9c0-1.10254.89697-2 2-2s2 .89746 2 2-.89697 2-2 2-2-.89746-2-2zm2 4c2.41455 0 4.43506 1.7207 4.89941 4h-9.79883c.46436-2.2793 2.48487-4 4.89942-4zM9 54c0 .55273.44775 1 1 1h12c.55225 0 1-.44727 1-1 0-2.80066-1.65747-5.21588-4.03973-6.33405.63922-.70916 1.03973-1.63806 1.03973-2.66595 0-2.20605-1.79443-4-4-4s-4 1.79395-4 4c0 1.02789.40051 1.95679 1.03973 2.66595-2.38226 1.11817-4.03973 3.53339-4.03973 6.33405zm5-9c0-1.10254.89697-2 2-2s2 .89746 2 2-.89697 2-2 2-2-.89746-2-2zm2 4c2.41455 0 4.43506 1.7207 4.89941 4h-9.79883c.46436-2.2793 2.48487-4 4.89942-4zM2 38c0 .55273.44775 1 1 1h12c.55225 0 1-.44727 1-1 0-2.80066-1.65747-5.21588-4.03973-6.33405.63922-.70916 1.03973-1.63806 1.03973-2.66595 0-2.20605-1.79443-4-4-4s-4 1.79395-4 4c0 1.02789.40051 1.95679 1.03973 2.66595-2.38226 1.11817-4.03973 3.53339-4.03973 6.33405zm5-9c0-1.10254.89697-2 2-2s2 .89746 2 2-.89697 2-2 2-2-.89746-2-2zm2 4c2.41455 0 4.43506 1.7207 4.89941 4h-9.79882c.46435-2.2793 2.48486-4 4.89941-4zM21 32c0 6.06543 4.93457 11 11 11s11-4.93457 11-11-4.93457-11-11-11-11 4.93457-11 11zm11-9c4.9624 0 9 4.03711 9 9s-4.0376 9-9 9-9-4.03711-9-9 4.0376-9 9-9z" fill="#ff528b" class="color000 svgShape"></path></svg></g></svg>