<svg id="SvgjsSvg1033" width="288" height="288" xmlns="http://www.w3.org/2000/svg" version="1.1" xmlns:xlink="http://www.w3.org/1999/xlink" xmlns:svgjs="http://svgjs.com/svgjs"><defs id="SvgjsDefs1034"></defs><g id="SvgjsG1035"><svg xmlns="http://www.w3.org/2000/svg" width="288" height="288" viewBox="0 0 512 512"><path d="M44,257.071A8,8,0,1,0,54.929,260,8,8,0,0,0,44,257.071Z" fill="#ff6699" class="color000 svgShape"></path><circle cx="360" cy="80" r="8" fill="#ff6699" class="color000 svgShape"></circle><circle cx="456" cy="80" r="8" fill="#ff6699" class="color000 svgShape"></circle><path d="M136,216a24,24,0,1,0-24-24A24.028,24.028,0,0,0,136,216Zm0-32a8,8,0,1,1-8,8A8.009,8.009,0,0,1,136,184Z" fill="#ff6699" class="color000 svgShape"></path><path d="M292.944,288H360a8,8,0,0,0,0-16H284.944l-11.577-23.155L318.4,188.8a8,8,0,1,0-12.8-9.6l-40.234,53.644-10.211-20.422A8,8,0,0,0,248,208c-.078,0-.157,0-.236,0a8,8,0,0,0-7.119,4.845l-17.2,40.145-8.286-16.572a8,8,0,0,0-10.733-3.577l-31.245,15.622-5.249-10.5a55.978,55.978,0,1,0-78.49-77.041L24.257,242.572a32.41,32.41,0,0,0-2.379,2.979l-.032.041,0,0A31.984,31.984,0,0,0,54.7,295.289l4.967,9.933-15.245,7.623a7.942,7.942,0,0,0-2.817,2.36l0,0-24,32a8,8,0,0,0-.755,8.378l16,32A8,8,0,0,0,40,392H75.056l13.789,27.578a7.993,7.993,0,0,0,10.733,3.577l56.844-28.422,12.423,24.845a7.98,7.98,0,0,0,6.241,4.36l-30.241,60.484a8,8,0,0,0,14.31,7.156L184,441.889V488a8,8,0,0,0,16,0V441.889l24.845,49.689a8,8,0,1,0,14.31-7.156l-36.422-72.844,8.845-4.423a8,8,0,0,0,3.577-10.733l-12.422-24.844,56.845-28.423a8,8,0,0,0,3.577-10.733l-9.171-18.343,40.884,5.841a8,8,0,0,0,8.287-11.5ZM52.874,232.371l27.45-34.383a56.143,56.143,0,0,0,38.887,47.438l-39.249,20.06c.023-.493.038-.987.038-1.486A32.05,32.05,0,0,0,52.874,232.371ZM136,152a39.985,39.985,0,0,1,19.927,74.66l-3.625,1.853A39.994,39.994,0,1,1,136,152ZM32,264a15.891,15.891,0,0,1,2.662-8.816l1.7-2.124A15.975,15.975,0,1,1,32,264Zm37.376,24.864,84.514-43.195,4.976,9.954L73.978,298.067ZM44.944,376,33.366,352.845l13.267-17.69L67.056,376Zm13.789-52.422,17.689-8.845,7.266,14.531a23.966,23.966,0,0,0,24.86,13.025l89.167-12.738A7.982,7.982,0,0,1,206,333.893l7.265,14.529L99.578,405.267Zm138.534,72.844-17.689,8.845-8.845-17.689,17.689-8.845Zm30.311-55.155-7.266-14.531a23.974,23.974,0,0,0-24.86-13.025l-89.167,12.738A7.987,7.987,0,0,1,98,322.107l-7.265-14.529,113.689-56.845,40.845,81.689Zm17.7-44.594-12.466-24.932,15.744-36.735,33.458,66.915Z" fill="#ff6699" class="color000 svgShape"></path><path d="M188.422 272.845l-32 16a8 8 0 107.156 14.31l32-16a8 8 0 10-7.156-14.31zM140.422 352.845l-32 16a8 8 0 107.156 14.31l32-16a8 8 0 10-7.156-14.31zM395.1 336.627l-60.8-25.6a8 8 0 10-6.209 14.746l60.8 25.6a8 8 0 106.208-14.746zM262.06 191.761a7.989 7.989 0 009.7-5.821l16-64a8 8 0 10-15.522-3.88l-16 64A8 8 0 00262.06 191.761zM462.139 119.528A40 40 0 00456 40q-1.01 0-2.006.051a56 56 0 00-91.989 0q-1-.05-2-.051a40 40 0 00-4.45 79.746L481.344 308.438A8 8 0 00496 304V176a8 8 0 00-1.216-4.24zM399.2 88h17.61A39.976 39.976 0 00428.7 109.2L408 125.755 387.3 109.2A39.982 39.982 0 00399.2 88zM480 80a24 24 0 11-24-24A24.028 24.028 0 01480 80zM408 32a40.055 40.055 0 0129.208 12.7 40.134 40.134 0 00-20.4 27.3H399.2a40.136 40.136 0 00-20.4-27.3A40.055 40.055 0 01408 32zM336 80a24 24 0 1124 24A24.028 24.028 0 01336 80zM480 277.578l-105.333-158L403 142.247a8 8 0 0010 0l29.648-23.718L480 178.294z" fill="#ff6699" class="color000 svgShape"></path></svg></g></svg>